<svg version="1.1" id="Layer_1" xmlns="http://www.w3.org/2000/svg" xmlns:xlink="http://www.w3.org/1999/xlink" x="0px" y="0px"
	 width="100%" viewBox="0 0 1437 2184" enable-background="new 0 0 1437 2184" xml:space="preserve">
<path fill="#FFFFFF" opacity="1.000000" stroke="none" 
	d="
M1.000000,881.000000 
	C1.000000,588.833313 1.008412,297.166656 0.906793,5.500032 
	C0.905487,1.750869 1.750962,0.906356 5.500019,0.907128 
	C481.500000,1.005161 957.500000,1.005161 1433.500000,0.907128 
	C1437.249023,0.906356 1438.093262,1.751010 1438.092773,5.500012 
	C1437.996704,730.500000 1437.996704,1455.500000 1438.092773,2180.500000 
	C1438.093262,2184.249023 1437.249023,2185.093750 1433.500000,2185.092773 
	C957.500000,2184.994873 481.500000,2184.994873 5.500020,2185.092773 
	C1.750963,2185.093750 0.906219,2184.249268 0.907073,2180.500000 
	C1.005695,1747.500000 1.000000,1314.500000 1.000000,881.000000 
z"/>
<path fill="#E2B742" opacity="1.000000" stroke="none" 
	d="
M1014.000000,143.000000 
	C1052.498047,143.000000 1090.501099,143.322479 1128.490356,142.746368 
	C1136.761230,142.620956 1142.490234,145.393692 1148.151367,150.565872 
	C1164.747559,165.728867 1181.500488,180.721054 1198.244995,195.720993 
	C1210.054077,206.299728 1221.924438,216.810562 1233.813477,227.299515 
	C1247.427490,239.310410 1261.081665,251.275894 1274.742432,263.233643 
	C1278.222168,266.279449 1280.159424,269.478149 1280.154907,274.664154 
	C1279.972900,479.820221 1280.003052,684.976501 1279.973755,890.132751 
	C1279.973267,893.525696 1280.531738,895.866028 1283.622803,898.448914 
	C1294.781006,907.773071 1305.243042,917.924377 1316.125610,927.585693 
	C1332.417236,942.048950 1348.858276,956.343689 1365.202148,970.748169 
	C1371.773438,976.539734 1378.237915,982.452332 1384.782715,988.274170 
	C1396.008179,998.259766 1407.219971,1008.261414 1418.536133,1018.143372 
	C1420.437134,1019.803467 1419.833130,1020.789429 1418.412842,1022.101074 
	C1413.177856,1026.935913 1408.029419,1031.866455 1402.726440,1036.625366 
	C1398.684204,1040.252930 1394.392944,1043.601929 1390.324707,1047.201660 
	C1375.357910,1060.444458 1360.406616,1073.705444 1345.510620,1087.027832 
	C1334.910889,1096.507812 1324.473999,1106.170288 1313.845337,1115.617310 
	C1303.611572,1124.713257 1293.281250,1133.703247 1282.863770,1142.587891 
	C1280.405151,1144.684692 1279.953735,1147.045044 1279.955566,1150.028198 
	C1280.010254,1239.190308 1280.000000,1328.352539 1280.000000,1417.514648 
	C1280.000000,1548.841309 1279.977295,1680.167969 1280.087280,1811.494507 
	C1280.091553,1816.492798 1279.153931,1819.906494 1274.716187,1823.130371 
	C1267.799927,1828.154663 1261.786011,1834.418091 1255.366821,1840.130493 
	C1240.437500,1853.415649 1225.463623,1866.650757 1210.567505,1879.973022 
	C1199.967896,1889.453125 1189.495117,1899.075073 1178.912476,1908.574463 
	C1166.495117,1919.720703 1154.020264,1930.802612 1141.570679,1941.912842 
	C1139.744751,1943.542236 1137.619019,1944.032471 1135.179321,1944.031494 
	C1044.517334,1943.993896 953.855225,1943.985352 863.193237,1944.059814 
	C860.038452,1944.062500 858.921021,1943.348267 858.927429,1939.960205 
	C859.030762,1885.296509 859.047424,1830.632446 858.906006,1775.968994 
	C858.895386,1771.862183 860.840759,1771.960938 863.764099,1771.964111 
	C910.095032,1772.015259 956.426147,1771.961060 1002.756836,1772.078857 
	C1006.221985,1772.087646 1008.506470,1770.922974 1011.010132,1768.641113 
	C1024.562622,1756.289917 1038.293945,1744.133057 1052.082153,1732.044434 
	C1053.357544,1730.926392 1054.066528,1730.006836 1054.007080,1728.391479 
	C1053.958008,1727.060059 1053.999878,1725.725220 1053.999878,1724.391968 
	C1054.000000,1532.901733 1054.003052,1341.411377 1053.975220,1149.921143 
	C1053.974731,1146.542480 1054.477173,1144.187622 1057.580444,1141.585205 
	C1068.977905,1132.027710 1079.667847,1121.632935 1090.798218,1111.749390 
	C1106.963745,1097.394653 1123.332764,1083.268921 1139.514160,1068.931763 
	C1150.157471,1059.501465 1160.593140,1049.837402 1171.179321,1040.342163 
	C1178.059814,1034.170776 1184.891846,1027.926880 1192.070068,1022.116455 
	C1194.350464,1020.270508 1193.259399,1019.662781 1191.991943,1018.539246 
	C1180.501465,1008.354309 1169.016602,998.162903 1157.496582,988.011414 
	C1143.875732,976.008667 1130.169312,964.102783 1116.598999,952.043457 
	C1105.969482,942.597412 1095.510620,932.959351 1084.938721,923.448059 
	C1075.356934,914.827454 1065.794678,906.181824 1056.044556,897.754822 
	C1054.445435,896.372681 1053.853516,895.158325 1053.985229,893.255310 
	C1054.065674,892.094238 1054.000000,890.923157 1054.000000,889.756531 
	C1053.999878,714.598755 1053.974731,539.440979 1054.111084,364.283295 
	C1054.115479,358.492188 1052.765625,354.667053 1047.861084,351.001068 
	C1040.212036,345.283752 1033.515381,338.296936 1026.377319,331.890198 
	C1020.478333,326.595642 1014.483521,321.407318 1008.620361,316.073822 
	C1006.851562,314.464783 1004.854431,315.030975 1002.944214,315.029419 
	C956.946533,314.991669 910.948608,314.927277 864.951660,315.110748 
	C860.272400,315.129425 858.853149,314.197021 858.872253,309.218292 
	C859.077454,255.888458 859.062805,202.557327 858.893066,149.227234 
	C858.877808,144.427612 859.709106,142.829620 865.006287,142.855682 
	C914.503235,143.099213 964.001831,143.000000 1014.000000,143.000000 
z"/>
<path fill="#E2B742" opacity="1.000000" stroke="none" 
	d="
M580.258972,315.664673 
	C550.027832,315.889618 520.031433,315.955902 490.035065,315.995758 
	C472.535339,316.019043 455.035492,316.025726 437.535919,315.971649 
	C434.979187,315.963745 432.584137,316.154755 430.591125,317.945618 
	C417.312622,329.877289 404.085114,341.866608 390.717957,353.698120 
	C387.849182,356.237274 386.920593,358.997864 386.922516,362.791351 
	C387.011627,538.788757 386.980713,714.786133 387.100281,890.783508 
	C387.103607,895.674988 385.353394,898.441589 381.558411,901.377441 
	C374.385620,906.926208 367.893585,913.353210 361.099457,919.393555 
	C346.287994,932.561768 331.435089,945.683411 316.655914,958.887695 
	C306.175018,968.251770 295.829590,977.767517 285.346008,987.128540 
	C273.891937,997.356262 262.430206,1007.578796 250.792999,1017.595886 
	C247.388855,1020.526062 247.289505,1022.429749 250.776123,1025.379272 
	C266.671417,1038.826294 282.074036,1052.833130 297.449127,1066.872681 
	C309.033325,1077.450684 320.868652,1087.754761 332.642059,1098.124023 
	C348.866669,1112.413696 365.131470,1126.658081 381.395325,1140.903198 
	C384.974792,1144.038452 387.166077,1147.259644 387.160645,1152.685303 
	C386.968475,1343.848999 387.010376,1535.012939 386.924927,1726.176758 
	C386.923218,1729.957642 387.787323,1732.756470 390.697723,1735.279175 
	C404.542358,1747.279297 418.300964,1759.380127 431.970795,1771.578979 
	C433.918274,1773.316895 435.936523,1772.978760 438.018280,1772.979980 
	C483.684296,1773.006348 529.350525,1773.069946 575.015869,1772.892944 
	C579.639099,1772.875000 581.149963,1773.716309 581.130249,1778.749756 
	C580.920349,1832.248169 580.954712,1885.747803 581.085815,1939.246704 
	C581.096313,1943.535889 580.370239,1945.131836 575.519836,1945.122803 
	C485.688141,1944.955200 395.855896,1944.944824 306.024261,1945.133911 
	C300.479523,1945.145508 297.672882,1941.610229 294.382050,1938.737549 
	C276.340973,1922.988647 258.485229,1907.026733 240.619904,1891.077393 
	C230.135406,1881.717285 219.817017,1872.170654 209.305618,1862.841309 
	C195.851715,1850.900391 182.289490,1839.081299 168.751007,1827.235962 
	C163.775299,1822.882568 160.747375,1818.441284 160.757782,1810.845581 
	C161.057831,1592.182617 160.956039,1373.519043 161.208847,1154.855835 
	C161.216553,1148.186279 158.414108,1144.377197 154.086288,1140.626831 
	C146.859436,1134.364258 139.555099,1128.189819 132.388504,1121.859253 
	C117.410095,1108.628418 102.469261,1095.354614 87.572731,1082.031616 
	C76.972542,1072.551270 66.533745,1062.890137 55.905697,1053.441406 
	C45.548489,1044.233643 35.083630,1035.145508 24.583443,1026.100586 
	C19.635248,1021.838196 19.349556,1021.718567 24.173792,1017.402893 
	C37.704292,1005.298828 51.433617,993.417358 65.044029,981.402222 
	C71.735649,975.494873 78.311050,969.456055 84.986015,963.529724 
	C99.433006,950.702881 113.927299,937.929260 128.369186,925.096680 
	C138.004745,916.534790 147.527328,907.844849 157.222198,899.351135 
	C160.077209,896.849854 161.084671,894.111450 161.082901,890.285461 
	C160.989166,686.121826 161.117477,481.957886 160.647308,277.795288 
	C160.624191,267.760986 166.559509,263.894531 171.981003,258.717133 
	C179.008652,252.005936 186.660278,245.952225 193.960953,239.522003 
	C208.458878,226.752701 222.935410,213.958649 237.353683,201.099564 
	C247.842773,191.744766 258.214966,182.259018 268.656097,172.850296 
	C278.602234,163.887619 288.577820,154.957550 298.522552,145.993317 
	C300.681458,144.047272 303.251190,143.976318 305.952911,143.977661 
	C365.118713,144.006927 424.284515,144.000000 483.450317,144.000000 
	C510.283264,144.000000 537.118225,144.162903 563.947083,143.832336 
	C568.193481,143.780014 572.182800,146.311768 576.688904,144.458664 
	C577.780884,144.009613 582.540100,144.981583 580.352417,149.350464 
	C579.048767,151.953995 581.099854,154.413391 581.092896,157.082932 
	C580.956238,209.419693 580.976746,261.756836 580.899780,314.560120 
	C580.720825,315.182556 580.607300,315.338776 580.258972,315.664673 
z"/>
<path fill="#E2B742" opacity="1.000000" stroke="none" 
	d="
M580.266113,315.843140 
	C580.114929,315.579224 580.268860,315.370667 580.660156,315.117523 
	C580.964783,315.396088 580.855957,315.671295 580.266113,315.843140 
z"/>
</svg>